<svg width="1000" height="164" viewBox="0 0 1000 164" fill="none" xmlns="http://www.w3.org/2000/svg">
<g clip-path="url(#clip0)">
<path d="M45.4349 0V47.9338H79.2839V67.0165H45.4349V124.264C45.4349 136.532 52.023 143.347 63.1545 143.347H79.2839V162.43H61.3371C38.1653 162.43 23.399 148.345 23.399 124.946V67.0165H0V47.9338H23.399V0H45.4349Z" fill="white"/>
<path d="M195.824 125.173C191.735 148.799 171.062 164.247 142.892 164.247C107.453 164.247 85.4171 136.305 85.4171 104.5C85.4171 72.4688 105.408 46.1165 140.62 46.1165C176.06 46.1165 194.915 71.3329 194.915 100.411C194.915 103.365 194.688 106.999 194.461 109.044H106.998C108.816 130.626 122.901 145.392 142.892 145.392C159.703 145.392 170.607 138.122 173.788 125.173H195.824ZM107.68 92.9145H172.652C171.289 75.4221 159.476 63.8362 140.62 63.8362C122.673 63.8362 111.088 73.8318 107.68 92.9145Z" fill="white"/>
<path d="M307.14 88.5982V162.43H285.104V143.802C279.652 156.069 265.113 164.247 247.847 164.247C224.448 164.247 209.001 150.163 209.001 129.717C209.001 107.681 226.493 94.0504 253.527 94.0504H277.38C282.605 94.0504 285.104 91.3243 285.104 87.2351C285.104 73.3775 275.108 63.8362 257.389 63.8362C241.487 63.8362 229.901 73.8318 229.219 85.4177H208.773C210.591 62.9275 231.036 46.1165 258.07 46.1165C287.603 46.1165 307.14 63.1546 307.14 88.5982ZM285.104 112.224V109.498H255.571C240.578 109.498 230.809 117.222 230.809 129.262C230.809 139.712 239.442 146.755 252.164 146.755C273.064 146.755 285.104 133.352 285.104 112.224Z" fill="white"/>
<path d="M322.588 105.182C322.588 73.6047 343.26 46.1165 379.381 46.1165C406.188 46.1165 429.36 62.0188 432.54 87.9167H410.504C408.46 74.9677 395.283 65.4264 379.836 65.4264C356.891 65.4264 345.544 83.146 345.544 105.182C345.544 127.218 357.129 144.938 379.836 144.938C395.511 144.938 407.097 136.759 410.731 123.81H432.54C428.905 147.891 408.46 164.247 379.381 164.247C343.26 164.247 322.588 136.759 322.588 105.182Z" fill="white"/>
<path d="M446.614 3.05176e-05H468.65V68.1524C474.795 53.8404 488.425 46.1164 505.463 46.1164C531.361 46.1164 548.172 64.7448 548.172 92.0057V162.43H526.136V96.322C526.136 78.1481 515.459 65.8806 499.33 65.8806C481.383 65.8806 468.661 80.4198 468.661 100.411V162.43H446.625L446.614 3.05176e-05Z" fill="white"/>
<path d="M704.24 88.5982V162.43H682.205V143.802C676.752 156.069 662.213 164.247 644.948 164.247C621.549 164.247 606.101 150.163 606.101 129.717C606.101 107.681 623.594 94.0504 650.627 94.0504H674.481C679.706 94.0504 682.205 91.3243 682.205 87.2351C682.205 73.3775 672.209 63.8362 654.489 63.8362C638.587 63.8362 627.001 73.8318 626.32 85.4177H605.874C607.691 62.9275 628.137 46.1165 655.171 46.1165C684.692 46.1165 704.24 63.1546 704.24 88.5982ZM682.205 112.224V109.498H652.672C637.678 109.498 627.91 117.222 627.91 129.262C627.91 139.712 636.542 146.755 649.264 146.755C670.164 146.755 682.193 133.352 682.193 112.224H682.205Z" fill="white"/>
<path d="M746.029 145.392V162.43H723.994V3.05176e-05H746.029V64.7448C752.618 53.6132 766.475 46.1164 782.15 46.1164C817.135 46.1164 836.899 71.1056 836.899 105.182C836.899 139.258 817.135 164.247 781.923 164.247C766.714 164.247 752.618 156.75 746.029 145.392ZM814.636 105.182C814.636 81.3285 800.551 65.4263 779.424 65.4263C758.07 65.4263 744.212 81.3285 744.212 105.182C744.212 129.035 758.07 144.937 779.424 144.937C800.551 144.937 814.636 129.035 814.636 105.182Z" fill="white"/>
<path d="M851.904 3.05176e-05H873.94V162.43H851.904V3.05176e-05Z" fill="white"/>
<path d="M1000 125.173C995.911 148.799 975.238 164.247 947.079 164.247C911.64 164.247 889.604 136.305 889.604 104.5C889.604 72.4688 909.595 46.1165 944.808 46.1165C980.235 46.1165 999.091 71.3329 999.091 100.411C999.091 103.365 998.864 106.999 998.637 109.044H911.174C912.992 130.626 927.077 145.392 947.068 145.392C963.868 145.392 974.772 138.122 977.952 125.173H1000ZM911.867 92.9145H976.851C975.499 75.4221 963.674 63.8362 944.83 63.8362C926.872 63.8362 915.275 73.8318 911.867 92.9145Z" fill="white"/>
<path d="M589.052 60.7123V85.4744H564.744V60.7123H589.052ZM589.052 137.952V162.43H564.744V137.895L589.052 137.952Z" fill="white"/>
</g>
<defs>
<clipPath id="clip0">
<rect width="1000" height="164" fill="white"/>
</clipPath>
</defs>
</svg>
